<mxfile host="app.diagrams.net" modified="2023-08-23T04:31:45.784Z" agent="Mozilla/5.0 (Macintosh; Intel Mac OS X 10_15_7) AppleWebKit/537.36 (KHTML, like Gecko) Chrome/116.0.0.0 Safari/537.36" etag="7xGgswZAXtPbg3XattSY" version="21.6.9" type="github">
  <diagram name="第 1 页" id="_uQN_7atDGiNSejN_JOg">
    <mxGraphModel dx="1434" dy="799" grid="1" gridSize="10" guides="1" tooltips="1" connect="1" arrows="1" fold="1" page="1" pageScale="1" pageWidth="827" pageHeight="1169" math="0" shadow="0">
      <root>
        <mxCell id="0" />
        <mxCell id="1" parent="0" />
        <mxCell id="BLwkt3QH4of1J2cDB1tl-2" value="&lt;b&gt;&lt;font style=&quot;font-size: 15px;&quot;&gt;动态出价计算逻辑&lt;/font&gt;&lt;/b&gt;" style="rounded=1;whiteSpace=wrap;html=1;strokeWidth=2;fillWeight=4;hachureGap=8;hachureAngle=45;fillColor=#dae8fc;strokeColor=#6c8ebf;" vertex="1" parent="1">
          <mxGeometry x="240" y="480" width="160" height="80" as="geometry" />
        </mxCell>
        <mxCell id="BLwkt3QH4of1J2cDB1tl-3" value="&lt;b&gt;&lt;font style=&quot;font-size: 15px;&quot;&gt;bid&lt;/font&gt;&lt;/b&gt;" style="rounded=1;whiteSpace=wrap;html=1;strokeWidth=2;fillWeight=4;hachureGap=8;hachureAngle=45;fillColor=#d5e8d4;strokeColor=#82b366;" vertex="1" parent="1">
          <mxGeometry x="160" y="80" width="120" height="80" as="geometry" />
        </mxCell>
        <mxCell id="BLwkt3QH4of1J2cDB1tl-4" value="&lt;span style=&quot;font-size: 15px;&quot;&gt;&lt;b&gt;imp/click/event&lt;/b&gt;&lt;/span&gt;" style="rounded=1;whiteSpace=wrap;html=1;strokeWidth=2;fillWeight=4;hachureGap=8;hachureAngle=45;fillColor=#d5e8d4;strokeColor=#82b366;" vertex="1" parent="1">
          <mxGeometry x="590" y="110" width="160" height="80" as="geometry" />
        </mxCell>
        <mxCell id="BLwkt3QH4of1J2cDB1tl-5" value="&lt;span style=&quot;font-size: 15px;&quot;&gt;&lt;b&gt;bidlog&lt;/b&gt;&lt;/span&gt;" style="rounded=1;whiteSpace=wrap;html=1;strokeWidth=2;fillWeight=4;hachureGap=8;hachureAngle=45;fillColor=#d5e8d4;strokeColor=#82b366;" vertex="1" parent="1">
          <mxGeometry x="160" y="280" width="120" height="80" as="geometry" />
        </mxCell>
        <mxCell id="BLwkt3QH4of1J2cDB1tl-6" value="&lt;span style=&quot;font-size: 15px;&quot;&gt;&lt;b&gt;data&lt;/b&gt;&lt;/span&gt;" style="rounded=1;whiteSpace=wrap;html=1;strokeWidth=2;fillWeight=4;hachureGap=8;hachureAngle=45;fillColor=#d5e8d4;strokeColor=#82b366;" vertex="1" parent="1">
          <mxGeometry x="550" y="290" width="120" height="80" as="geometry" />
        </mxCell>
      </root>
    </mxGraphModel>
  </diagram>
</mxfile>
